<svg viewBox="0 0 160 160" xmlns="http://www.w3.org/2000/svg">
    <defs>
        <linearGradient id="plane" x1="0" y1="0" x2="1" y2="1">
            <stop offset="0%" stop-color="#684c96"></stop>
            <stop offset="100%" stop-color="#4e2a84"></stop>
        </linearGradient>
    </defs>
    <g transform="rotate(15 80 80)" opacity="0.35">
        <rect x="36" y="36" width="88" height="88" rx="3" fill="url(#plane)"></rect>
        <rect x="36" y="36" width="88" height="88" rx="3" fill="none" stroke="#d4a234" stroke-width="0.5" opacity="0.35"></rect>
    </g>
    <g transform="rotate(0 80 80)" opacity="0.55">
        <rect x="36" y="36" width="88" height="88" rx="3" fill="url(#plane)"></rect>
        <rect x="36" y="36" width="88" height="88" rx="3" fill="none" stroke="#d4a234" stroke-width="0.5" opacity="0.45"></rect>
    </g>
    <g transform="rotate(-15 80 80)" opacity="0.85">
        <rect x="36" y="36" width="88" height="88" rx="3" fill="url(#plane)"></rect>
        <rect x="36" y="36" width="88" height="88" rx="3" fill="none" stroke="#ffc520" stroke-width="0.7" opacity="0.45"></rect>
    </g>
    <g transform="rotate(-15 80 80)" opacity="0.2">
        <line x1="36" y1="47" x2="124" y2="47" stroke="#b6acd1" stroke-width="0.4"></line>
        <line x1="36" y1="58" x2="124" y2="58" stroke="#b6acd1" stroke-width="0.4"></line>
        <line x1="36" y1="69" x2="124" y2="69" stroke="#b6acd1" stroke-width="0.4"></line>
        <line x1="36" y1="80" x2="124" y2="80" stroke="#b6acd1" stroke-width="0.4"></line>
        <line x1="36" y1="91" x2="124" y2="91" stroke="#b6acd1" stroke-width="0.4"></line>
        <line x1="36" y1="102" x2="124" y2="102" stroke="#b6acd1" stroke-width="0.4"></line>
        <line x1="36" y1="113" x2="124" y2="113" stroke="#b6acd1" stroke-width="0.4"></line>
        <line x1="47" y1="36" x2="47" y2="124" stroke="#b6acd1" stroke-width="0.4"></line>
        <line x1="58" y1="36" x2="58" y2="124" stroke="#b6acd1" stroke-width="0.4"></line>
        <line x1="69" y1="36" x2="69" y2="124" stroke="#b6acd1" stroke-width="0.4"></line>
        <line x1="80" y1="36" x2="80" y2="124" stroke="#b6acd1" stroke-width="0.4"></line>
        <line x1="91" y1="36" x2="91" y2="124" stroke="#b6acd1" stroke-width="0.4"></line>
        <line x1="102" y1="36" x2="102" y2="124" stroke="#b6acd1" stroke-width="0.4"></line>
        <line x1="113" y1="36" x2="113" y2="124" stroke="#b6acd1" stroke-width="0.4"></line>
    </g>
    <polygon points="80,50 87,70 108,70 91,82 97,102 80,91 63,102 69,82 52,70 73,70" fill="#ffc520"></polygon>
    <polygon points="80,58 84.5,71 98,71 87,79 91,92 80,85 69,92 73,79 62,71 75.5,71" fill="#ffe48a" opacity="0.5"></polygon>
</svg>
